
    <svg width="400" height="160" viewBox="0 0 400 160" fill="none" xmlns="http://www.w3.org/2000/svg" xmlns:xlink="http://www.w3.org/1999/xlink">
        <rect width="398" height="158" x="1" y="1" rx="8" fill="#0d1117" stroke="#30363d"/>
        <text x="20" y="25" font-family="Segoe UI" font-weight="bold" font-size="16" fill="#58a6ff">Saimon Bardini - Stats</text>
        
        <g font-family="Segoe UI" font-size="12" fill="#c9d1d9">
            <text x="20" y="50">Repositórios:</text>
            <text x="95" y="50" font-weight="bold" fill="#f0f6fc">8</text>
            
            <text x="160" y="50">Total Commits:</text>
            <text x="250" y="50" font-weight="bold" fill="#f0f6fc">101</text>
        </g>
        
        <line x1="20" y1="65" x2="380" y2="65" stroke="#30363d" />
        
        
        <g transform="translate(20, 82)">
            <text x="0" y="9" fill="#c9d1d9" font-family="Segoe UI" font-size="10">PHP</text>
            <rect x="75" y="2" width="250" height="6" rx="3" fill="#21262d"/>
            <rect x="75" y="2" width="178.5" height="6" rx="3" fill="#4F5D95"/>
            <text x="330" y="9" fill="#8b949e" font-family="Segoe UI" font-size="9">71.4%</text>
        </g>
    
        <g transform="translate(20, 96)">
            <text x="0" y="9" fill="#c9d1d9" font-family="Segoe UI" font-size="10">JavaScript</text>
            <rect x="75" y="2" width="250" height="6" rx="3" fill="#21262d"/>
            <rect x="75" y="2" width="49.5" height="6" rx="3" fill="#f1e05a"/>
            <text x="330" y="9" fill="#8b949e" font-family="Segoe UI" font-size="9">19.8%</text>
        </g>
    
        <g transform="translate(20, 110)">
            <text x="0" y="9" fill="#c9d1d9" font-family="Segoe UI" font-size="10">CSS</text>
            <rect x="75" y="2" width="250" height="6" rx="3" fill="#21262d"/>
            <rect x="75" y="2" width="21.25" height="6" rx="3" fill="#663399"/>
            <text x="330" y="9" fill="#8b949e" font-family="Segoe UI" font-size="9">8.5%</text>
        </g>
    
        <g transform="translate(20, 124)">
            <text x="0" y="9" fill="#c9d1d9" font-family="Segoe UI" font-size="10">HTML</text>
            <rect x="75" y="2" width="250" height="6" rx="3" fill="#21262d"/>
            <rect x="75" y="2" width="0.5" height="6" rx="3" fill="#e34c26"/>
            <text x="330" y="9" fill="#8b949e" font-family="Segoe UI" font-size="9">0.2%</text>
        </g>
    
        <g transform="translate(20, 138)">
            <text x="0" y="9" fill="#c9d1d9" font-family="Segoe UI" font-size="10">SCSS</text>
            <rect x="75" y="2" width="250" height="6" rx="3" fill="#21262d"/>
            <rect x="75" y="2" width="0.25" height="6" rx="3" fill="#c6538c"/>
            <text x="330" y="9" fill="#8b949e" font-family="Segoe UI" font-size="9">0.1%</text>
        </g>
    
    </svg>