
    <svg width="450" height="200" viewBox="0 0 450 200" fill="none" xmlns="http://www.w3.org/2000/svg">
        <rect width="448" height="198" x="1" y="1" rx="10" fill="#0d1117" stroke="#30363d"/>
        <text x="20" y="35" font-family="Segoe UI" font-weight="bold" font-size="18" fill="#58a6ff">Saimon Bardini - Stats</text>
        
        <g font-family="Segoe UI" font-size="14" fill="#c9d1d9">
            <text x="20" y="70">Repositórios Públicos:</text>
            <text x="180" y="65" font-weight="bold" fill="#f0f6fc">9</text>
            
            <text x="210" y="65">Total Commits:</text>
            <text x="320" y="65" font-weight="bold" fill="#f0f6fc">87</text>
        </g>
        
        <line x1="20" y1="85" x2="430" y2="85" stroke="#30363d" />
        
        
        <g transform="translate(20, 100)">
            <text x="0" y="10" fill="#c9d1d9" font-family="Segoe UI" font-size="11">PHP</text>
            <rect x="80" y="2" width="280" height="7" rx="3.5" fill="#21262d"/>
            <rect x="80" y="2" width="199.64" height="7" rx="3.5" fill="#4F5D95"/>
            <text x="365" y="10" fill="#8b949e" font-family="Segoe UI" font-size="10">71.3%</text>
        </g>
    
        <g transform="translate(20, 118)">
            <text x="0" y="10" fill="#c9d1d9" font-family="Segoe UI" font-size="11">JavaScript</text>
            <rect x="80" y="2" width="280" height="7" rx="3.5" fill="#21262d"/>
            <rect x="80" y="2" width="55.71999999999999" height="7" rx="3.5" fill="#f1e05a"/>
            <text x="365" y="10" fill="#8b949e" font-family="Segoe UI" font-size="10">19.9%</text>
        </g>
    
        <g transform="translate(20, 136)">
            <text x="0" y="10" fill="#c9d1d9" font-family="Segoe UI" font-size="11">CSS</text>
            <rect x="80" y="2" width="280" height="7" rx="3.5" fill="#21262d"/>
            <rect x="80" y="2" width="23.799999999999997" height="7" rx="3.5" fill="#663399"/>
            <text x="365" y="10" fill="#8b949e" font-family="Segoe UI" font-size="10">8.5%</text>
        </g>
    
        <g transform="translate(20, 154)">
            <text x="0" y="10" fill="#c9d1d9" font-family="Segoe UI" font-size="11">HTML</text>
            <rect x="80" y="2" width="280" height="7" rx="3.5" fill="#21262d"/>
            <rect x="80" y="2" width="0.5599999999999999" height="7" rx="3.5" fill="#e34c26"/>
            <text x="365" y="10" fill="#8b949e" font-family="Segoe UI" font-size="10">0.2%</text>
        </g>
    
        <g transform="translate(20, 172)">
            <text x="0" y="10" fill="#c9d1d9" font-family="Segoe UI" font-size="11">SCSS</text>
            <rect x="80" y="2" width="280" height="7" rx="3.5" fill="#21262d"/>
            <rect x="80" y="2" width="0.27999999999999997" height="7" rx="3.5" fill="#c6538c"/>
            <text x="365" y="10" fill="#8b949e" font-family="Segoe UI" font-size="10">0.1%</text>
        </g>
    
    </svg>